# xmcd
#
# Track frame offsets:
#	150
#	12931
#	30711
#	44865
#	61252
#	84097
#	97249
#	111697
#	129492
#	139809
#	158443
#	171043
#
# Disc length: 2445 seconds
#
# Revision: 0
# Processed by: cddbd v1.5.2PL0 Copyright (c) Steve Scherf et al.
# Submitted via: FairStars CD Ripper 1.01
#
DISCID=a0098b0c
DTITLE=Arthur Blanch - Life's Been Good To Me
DYEAR=2005
DGENRE=Country
TTITLE0=For A Song
TTITLE1=When Your Rock Turns To Stone
TTITLE2=Strollin' In The Sunshine
TTITLE3=I'd Better Write It Down
TTITLE4=Wellingrove Girl
TTITLE5=Roots And Wings
TTITLE6=With Every Breath
TTITLE7=I Just Wanna Make Love With You
TTITLE8=It's A Lovely Lovely World
TTITLE9=Still They Call Me Love
TTITLE10=Back In Baby's Arms
TTITLE11=Life's Been Good To Me
EXTD=
EXTT0=
EXTT1=
EXTT2=
EXTT3=
EXTT4=
EXTT5=
EXTT6=
EXTT7=
EXTT8=
EXTT9=
EXTT10=
EXTT11=
PLAYORDER=
